# xmcd CD database file
#
# Track frame offsets:
#	150
#	42523
#	89015
#	126475
#	169563
#	210283
#
# Disc length: 3226 seconds
#
# Revision: 0
# Processed by: cddbd v1.4PL0 Copyright (c) Steve Scherf et al.
# Submitted via: CDex 1.51
#
DISCID=4f0c9806
DTITLE=Sonny Clark - Cool Struttin'
DYEAR=1900
DGENRE=Jazz
TTITLE0=Cool Struttin'
TTITLE1=Blue Minor
TTITLE2=Sippin' At Bells
TTITLE3=Deep Night
TTITLE4=Royal Flush
TTITLE5=Lover
EXTD=
EXTT0=
EXTT1=
EXTT2=
EXTT3=
EXTT4=
EXTT5=
PLAYORDER=
